<?xml version="1.0" encoding="UTF-8"?>
<svg viewBox="0 0 80 130" xmlns="http://www.w3.org/2000/svg" width="75" height="120">
<defs>
  <linearGradient id="rg" x1="0" y1="0" x2="1" y2="0">
    <stop offset="0%" stop-color="#555"/><stop offset="30%" stop-color="#ccc"/>
    <stop offset="70%" stop-color="#ccc"/><stop offset="100%" stop-color="#555"/>
  </linearGradient>
  <filter id="rf"><feDropShadow dx="0" dy="1" stdDeviation="1.5" flood-opacity=".5"/></filter>
</defs>
<!-- Sleepers -->
<rect x="5" y="6"  width="70" height="11" rx="2.5" fill="#6b3e1e"/>
<rect x="5" y="6"  width="70" height="3.5" rx="1" fill="#8b5e3c" opacity=".7"/>
<rect x="5" y="23" width="70" height="11" rx="2.5" fill="#6b3e1e"/>
<rect x="5" y="23" width="70" height="3.5" rx="1" fill="#8b5e3c" opacity=".7"/>
<rect x="5" y="40" width="70" height="11" rx="2.5" fill="#6b3e1e"/>
<rect x="5" y="40" width="70" height="3.5" rx="1" fill="#8b5e3c" opacity=".7"/>
<rect x="5" y="57" width="70" height="11" rx="2.5" fill="#6b3e1e"/>
<rect x="5" y="57" width="70" height="3.5" rx="1" fill="#8b5e3c" opacity=".7"/>
<rect x="5" y="74" width="70" height="11" rx="2.5" fill="#6b3e1e"/>
<rect x="5" y="74" width="70" height="3.5" rx="1" fill="#8b5e3c" opacity=".7"/>
<rect x="5" y="91" width="70" height="11" rx="2.5" fill="#6b3e1e"/>
<rect x="5" y="91" width="70" height="3.5" rx="1" fill="#8b5e3c" opacity=".7"/>
<rect x="5" y="108" width="70" height="11" rx="2.5" fill="#6b3e1e"/>
<rect x="5" y="108" width="70" height="3.5" rx="1" fill="#8b5e3c" opacity=".7"/>
<!-- Rails -->
<rect x="14" y="0" width="10" height="130" rx="3" fill="url(#rg)" filter="url(#rf)"/>
<rect x="16" y="0" width="3" height="130" rx="1.5" fill="#e5e7eb" opacity=".35"/>
<rect x="56" y="0" width="10" height="130" rx="3" fill="url(#rg)" filter="url(#rf)"/>
<rect x="58" y="0" width="3" height="130" rx="1.5" fill="#e5e7eb" opacity=".35"/>
<!-- Bolts -->
<circle cx="19" cy="11"  r="2.2" fill="#2d2d2d"/><circle cx="61" cy="11"  r="2.2" fill="#2d2d2d"/>
<circle cx="19" cy="28"  r="2.2" fill="#2d2d2d"/><circle cx="61" cy="28"  r="2.2" fill="#2d2d2d"/>
<circle cx="19" cy="45"  r="2.2" fill="#2d2d2d"/><circle cx="61" cy="45"  r="2.2" fill="#2d2d2d"/>
<circle cx="19" cy="62"  r="2.2" fill="#2d2d2d"/><circle cx="61" cy="62"  r="2.2" fill="#2d2d2d"/>
<circle cx="19" cy="79"  r="2.2" fill="#2d2d2d"/><circle cx="61" cy="79"  r="2.2" fill="#2d2d2d"/>
<circle cx="19" cy="96"  r="2.2" fill="#2d2d2d"/><circle cx="61" cy="96"  r="2.2" fill="#2d2d2d"/>
<circle cx="19" cy="113" r="2.2" fill="#2d2d2d"/><circle cx="61" cy="113" r="2.2" fill="#2d2d2d"/>
</svg>
